# xmcd
#
# Track frame offsets:
#	150
#	13419
#	31219
#	48960
#	64115
#	79847
#	89278
#	107762
#	124426
#	145165
#	156710
#	177193
#
# Disc length: 2630 seconds
#
# Revision: 1
# Processed by: cddbd v1.5.2PL0 Copyright (c) Steve Scherf et al.
# Submitted via: audiograbber 1.83.01
#
DISCID=a60a440c
DTITLE=Samuel Harfst - Audiotagebuch
DYEAR=2007
DGENRE=Acoustic
TTITLE0=Wege vor mir
TTITLE1=Change will come
TTITLE2=Das Privileg zu sein
TTITLE3=Stick with you
TTITLE4=Vom Sein
TTITLE5=N‰her zu dir
TTITLE6=Ausbruch aus der Mittelm‰ﬂigkeit
TTITLE7=Always
TTITLE8=Adore Him
TTITLE9=Still standing
TTITLE10=Wahre Helden
TTITLE11=Mach uns eins
EXTD=Christian Music
EXTT0=
EXTT1=
EXTT2=
EXTT3=
EXTT4=
EXTT5=
EXTT6=
EXTT7=
EXTT8=
EXTT9=
EXTT10=
EXTT11=
PLAYORDER=
